<?xml version="1.0" encoding="utf-8"?>
<!-- Generator: Adobe Illustrator 19.1.0, SVG Export Plug-In . SVG Version: 6.00 Build 0)  -->
<svg version="1.1" id="Layer_1" xmlns="http://www.w3.org/2000/svg" xmlns:xlink="http://www.w3.org/1999/xlink" x="0px" y="0px"
	 width="24px" height="24px" viewBox="0 0 24 24" style="enable-background:new 0 0 24 24;" xml:space="preserve">
<style type="text/css">
	.st0{fill:#FF6600;}
	.st1{fill:#FFFFFF;}
</style>
<path class="st0" d="M4.5,0h15C22,0,24,2,24,4.5v15c0,2.5-2,4.5-4.5,4.5h-15C2,24,0,22,0,19.5v-15C0,2,2,0,4.5,0z"/>
<circle class="st1" cx="6" cy="18" r="3"/>
<path class="st1" d="M3,12c5,0,9,4,9,9h3C15,14.4,9.6,9,3,9V12z"/>
<path class="st1" d="M3,6c8.3,0,15,6.7,15,15h3c0-9.9-8.1-18-18-18V6z"/>
<g>
</g>
<g>
</g>
<g>
</g>
<g>
</g>
<g>
</g>
<g>
</g>
<g>
</g>
<g>
</g>
<g>
</g>
<g>
</g>
<g>
</g>
<g>
</g>
<g>
</g>
<g>
</g>
<g>
</g>
</svg>
