<svg id="zonenplan-svg" xmlns="http://www.w3.org/2000/svg" width="2528.84" height="2242.4" viewBox="0 0 2528.84 2242.4">
  <defs>
    <style>
      .cls-1 {
        fill: #edf0f4;
      }

      .cls-1, .cls-10, .cls-11, .cls-12, .cls-13, .cls-2, .cls-3, .cls-4, .cls-5, .cls-6, .cls-7, .cls-8, .cls-9 {
        stroke: #fff;
        stroke-miterlimit: 10;
      }

      .cls-1, .cls-10, .cls-11, .cls-12, .cls-13, .cls-2, .cls-3, .cls-4, .cls-5, .cls-7, .cls-8, .cls-9 {
        stroke-width: 3px;
      }

      .cls-2 {
        fill: #e4e8ef;
      }

      .cls-3 {
        fill: #cbd3e0;
      }

      .cls-4 {
        fill: #c7cfdd;
      }

      .cls-5, .cls-6 {
        fill: #fcf7e0;
      }

      .cls-7 {
        fill: #f7eaad;
      }

      .cls-8 {
        fill: #f1db6f;
      }

      .cls-9 {
        fill: #ebcc32;
      }

      .cls-10 {
        fill: #e7c257;
      }

      .cls-11 {
        fill: #f7eccb;
      }

      .cls-12 {
        fill: #a9d3e6;
      }

      .cls-13 {
        fill: none;
      }

      .cls-14 {
        fill: #fff;
      }
    </style>
  </defs>
  <title>zones_export</title>
  <g id="Zonen_gelb" data-name="Zonen gelb">
    <g id="blaue_Zonen" data-name="blaue Zonen">
      <polygon id="zone447" class="cls-1" points="2470.51 1805.7 2267.31 1805.7 2267.22 1682 2470.51 1682 2470.51 1805.7"/>
      <polygon id="zone324" class="cls-1" points="156.71 706.3 281.61 830.7 281.61 859.9 3.61 859.5 156.71 706.3"/>
      <polygon id="zone351" class="cls-1" points="517.31 387.9 517.61 496.2 366.91 496.2 313.81 553 61.21 553 79.71 534.4 167.01 447.4 167.01 387.1 207.61 387.2 517.31 388 517.31 387.9"/>
      <polygon id="zone279" class="cls-1" points="1865.81 208 1975.91 317.2 1871.81 421 1686.31 235.2 1488.21 235.3 1325.81 73.2 1521.21 73.4 1593.31 1.5 1703.81 1.5 1704.21 207.8 1865.81 208"/>
      <polygon id="zone281" class="cls-1" points="2177.72 317.2 1975.91 317.2 1975.71 105.9 2079.91 1.7 2298.91 1.7 2371.81 74.5 2372.01 157.7 2304.81 224.7 2199.01 224.7 2177.72 246 2177.72 317.2"/>
    </g>
    <g id="Blaue_Zonen:" data-name="Blaue Zonen:">
      <polygon id="zone282" class="cls-2" points="1703.91 1.5 2079.22 1.7 1975.61 105.8 1703.91 105 1703.91 1.5"/>
    </g>
    <g id="blauen_Zonen" data-name="blauen Zonen">
      <polygon id="zone697" class="cls-3" points="788.01 1280.6 614.91 1454 530.81 1370 723.81 1177.2 788.11 1242.1 788.01 1280.6"/>
      <polygon id="zone323" class="cls-4" points="400.51 713.7 281.81 830.7 156.91 706.3 274.81 587.9 400.51 713.7"/>
      <polygon id="zone352" class="cls-4" points="517.31 388 166.61 387.1 481.71 72.6 586.21 72.5 586.21 319.3 517.31 387.9 517.31 388"/>
      <polygon id="zone446" class="cls-4" points="2470.41 1682 2352.81 1681.9 2353.11 1520.1 2352.91 1490.3 2470.01 1490.3 2470.41 1682"/>
      <polygon id="zone197" class="cls-3" points="2526.81 925.7 2401.72 800.9 2500.72 702 2526.72 676.4 2526.81 925.7"/>
      <polygon id="zone280" class="cls-4" points="1703.91 105 1975.71 105.8 1975.91 317.2 1865.81 208 1704.21 207.8 1703.91 105"/>
    </g>
    <g id="Zonen_15" data-name="Zonen 15">
      <polygon id="zone125" class="cls-5" points="1698.51 1686.9 1494.71 1891 1494.61 1767.8 1591.71 1670 1591.71 1368.7 1698.51 1368.7 1698.51 1686.9"/>
      <polygon id="zone147" class="cls-5" points="1923.91 1496.2 2054.01 1627.6 2054.01 1756 1915.51 1755.9 1840.51 1681 1841.21 1465.7 1923.81 1465.6 1923.91 1496.2"/>
      <polygon id="zone156" class="cls-5" points="1984.01 1310.3 1924.71 1369.2 1698.51 1369.2 1698.51 1305.4 1836.01 1305.4 1836.21 1137.7 1952.51 1021.8 1983.81 1053.2 1984.01 1310.3"/>
      <polygon id="zone140" class="cls-5" points="2131.51 1481.9 2267.11 1481.9 2267.11 1627.7 2167.22 1628 2059.31 1520.1 2059.31 1409.2 2131.51 1481.9"/>
      <polygon id="zone161" class="cls-5" points="2352.91 1490.3 2353.01 1388.5 2522.01 1388.5 2522.01 1438.2 2470.01 1490.3 2352.91 1490.3"/>
      <polygon id="zone114" class="cls-5" points="1492.21 1158.2 1591.41 1257.8 1591.61 1368.6 1470.71 1368.7 1332.31 1229.5 1171.61 1229.5 1171.61 1158.2 1492.21 1158.2"/>
      <polygon id="zone150" class="cls-5" points="1671.11 1226.5 1546.01 1101.7 1546.01 984.2 1502.41 940.9 1740.21 940.6 1806.51 1007 1806.31 1137.7 1758.61 1137.7 1671.11 1226.5"/>
      <polygon id="zone196" class="cls-5" points="2062.41 911.5 1989.21 985.1 1715.81 713 1599.71 713 1716.51 596.2 1716.51 512 1780.91 512 1896.41 627.2 1896.41 730 2062.22 895 2062.41 911.5"/>
      <polygon id="zone253" class="cls-5" points="1124.21 358.9 1124.31 399.1 1009.81 399.2 1009.91 324.5 1124.21 324.4 1124.21 358.9"/>
      <polygon id="zone345" class="cls-5" points="1184.01 215.4 1326.01 73.4 1452.11 198.8 1296.01 355.1 1183.91 355.1 1184.01 215.4"/>
      <polygon id="zone353" class="cls-6" points="788.01 319.3 585.91 319.3 585.91 72.5 788.01 72.5 788.01 319.3"/>
      <polygon id="zone626" class="cls-5" points="1472.91 1912.6 1472.31 2032.3 1121.31 2032.7 1121.31 1913 1472.91 1912.6"/>
      <polygon id="zone164" class="cls-5" points="2457.81 1208.5 2353.11 1309.8 2222.72 1310.2 2222.72 1208.5 2457.81 1208.5 2457.81 1208.5"/>
      <polygon id="zone218" class="cls-5" points="1267.11 881.3 1434.61 713 1502.01 713 1502.51 881.3 1267.11 881.3"/>
      <polygon id="zone696" class="cls-5" points="660.41 1240.6 531.01 1370.1 427.41 1370.1 427.21 1275.2 427.21 1275.2 461.31 1240.9 660.41 1240.6"/>
      <polygon id="zone192" class="cls-5" points="2063.72 614.4 2123.22 673.9 2316.81 674 2316.81 704.9 2176.31 845.1 2062.51 845.5 2063.72 614.4"/>
      <polygon id="zone116" class="cls-5" points="1494.61 1767.8 1459.81 1802.5 1041.81 1802.5 988.01 1748.6 1085.51 1650.6 1136.61 1702.1 1332.31 1702.1 1380.91 1653.4 1494.61 1767.8"/>
      <polygon id="zone699" class="cls-5" points="824.11 1912.4 787.81 1876.5 787.31 1367.7 903.61 1367.7 903.51 1663.9 987.81 1748.8 824.11 1912.4"/>
      <polygon id="zone310" class="cls-5" points="1020.81 1158.2 743.11 1158.2 852.91 1048.5 932.91 1048.5 1099.91 881.3 1120.31 881.3 1120.81 1058.4 1020.81 1158.2"/>
      <polygon id="zone331" class="cls-5" points="1139.31 678.4 962.51 855.6 963.21 704.2 855.91 597.8 855.91 496.2 956.11 496 1139.31 678.4"/>
      <polygon id="zone315" class="cls-5" points="475.31 1021.4 400.61 945.7 400.51 713.6 517.41 597.4 704.81 597.4 597.51 704.4 597.31 857.1 618.91 878 475.31 1021.4"/>
    </g>
    <g id="Zonen">
      <polygon id="zone131" class="cls-7" points="1606.01 2032.4 1606.41 1915.6 1840.51 1681 1915.51 1755.9 1915.61 1931.5 1808.01 1931.5 1706.81 2032.6 1606.01 2032.4"/>
      <polygon id="zone145" class="cls-7" points="2352.81 1681.9 2267.11 1682 2267.11 1481.9 2309.72 1481.9 2352.91 1438.4 2352.81 1681.9"/>
      <polygon id="zone141" class="cls-7" points="2167.22 1627.8 2053.91 1627.6 1924.01 1496.3 1924.61 1368.9 1984.01 1310.5 2059.31 1310.5 2059.31 1519.9 2167.22 1627.8"/>
      <polygon id="zone153" class="cls-7" points="1740.41 860.5 1740.41 940.6 1502.51 940.7 1502.51 860.9 1740.41 860.5"/>
      <polygon id="zone124" class="cls-7" points="1467.81 1058 1467.81 1157.9 1021.71 1158.3 1120.81 1058.4 1467.81 1058"/>
      <polygon id="zone195" class="cls-7" points="2062.31 895 1896.71 730.3 1896.71 627.4 1780.91 512 1871.81 421 2063.72 614.4 2062.31 895"/>
      <polygon id="zone251" class="cls-7" points="1024.21 563.3 992.11 531.8 1124.21 399.2 1124.21 324.5 1183.91 324.5 1183.91 469.3 1118.21 469 1024.21 563.3"/>
      <polygon id="zone343" class="cls-7" points="923.11 73 923.51 237.7 1010.41 324.6 1009.71 399.5 913.01 495.9 855.91 496.2 855.91 386.8 788.01 319.3 788.01 72.5 923.11 73"/>
      <polygon id="zone155" class="cls-7" points="1806.31 1137.7 1806.51 1008 1909.71 905.8 1989.11 985.1 1836.21 1137.7 1806.31 1137.7"/>
      <polygon id="zone628" class="cls-7" points="1394.61 2032.2 1394.61 2122.4 1312.31 2205.4 1143.91 2205.4 1108.31 2240.9 780.71 2240.9 704.91 2165 704.91 2032.4 1394.61 2032.2"/>
      <polygon id="zone191" class="cls-7" points="2316.81 704.9 2316.72 539.5 2177.41 400.2 2177.81 317.2 2372.22 317.2 2478.11 422.3 2477.91 544.1 2316.81 704.9"/>
      <polygon id="zone163" class="cls-7" points="2353.11 1309.8 2353.11 1388.2 2222.72 1388.2 2222.72 1310.4 2353.11 1309.8"/>
      <polygon id="zone698" class="cls-7" points="787.31 1626.4 615.21 1454.6 615.21 1453.5 788.01 1280.6 787.31 1367.7 787.31 1626.4"/>
      <polygon id="zone312" class="cls-7" points="852.71 1048.5 723.51 1177.4 578.81 1032.8 650.01 908.7 704.41 963.1 767.31 963.1 852.71 1048.5"/>
      <polygon id="zone229" class="cls-7" points="1139.21 678.4 1244.31 783.4 1244.31 881.3 1120.31 881.3 1120.31 851.4 1043.61 774.6 1139.21 678.4"/>
      <polygon id="zone341" class="cls-7" points="666.21 496.2 517.61 496.2 517.31 387.9 585.41 319.3 666.21 319.3 666.21 496.2"/>
    </g>
    <g id="Zonen-2" data-name="Zonen">
      <polygon id="zone126" class="cls-8" points="1494.61 1912.6 1140.81 1912.6 824.11 1912.4 988.01 1748.6 1041.81 1802.5 1459.81 1802.5 1494.61 1767.8 1494.61 1912.6"/>
      <polygon id="zone143" class="cls-8" points="2054.41 1931.4 1915.61 1931.4 1915.51 1756 2054.01 1756 2054.41 1931.4"/>
      <polygon id="zone146" class="cls-8" points="1924.61 1369.2 1924.01 1467.8 1841.11 1467.8 1841.21 1467.8 1698.51 1467.8 1698.51 1369.2 1924.61 1369.2"/>
      <polygon id="zone152" class="cls-8" points="1909.31 905.6 1806.51 1008 1740.41 940.6 1740.31 860.5 1802.41 798.7 1909.31 905.6"/>
      <polygon id="zone177" class="cls-8" points="1021.71 1158.3 903.61 1276.3 903.61 1367.7 788.11 1367.7 787.21 1367.7 788.11 1242.1 724.11 1177 742.81 1158.4 1021.71 1158.3"/>
      <polygon id="zone154" class="cls-8" points="1836.21 1305.4 1698.51 1305.4 1698.51 1254 1671.11 1226.6 1758.61 1137.7 1836.21 1137.7 1836.21 1305.4"/>
      <polygon id="zone314" class="cls-8" points="281.61 830.7 400.61 713.7 400.41 945.6 475.41 1020.6 510.91 1046.2 281.11 1275.3 281.61 830.7"/>
      <polygon id="zone322" class="cls-8" points="400.51 713.5 274.81 587.9 367.21 496.2 517.61 496.2 517.31 597.5 400.51 713.5"/>
      <polygon id="zone193" class="cls-8" points="2014.11 564.6 1871.81 421 1975.91 317.2 2177.81 317.2 2177.41 400.2 2014.11 564.6"/>
      <polygon id="zone228" class="cls-8" points="1502.61 881.7 1502.51 940.7 1546.01 984.2 1546.11 1101.6 1467.81 1101.8 1467.81 1057.4 1120.91 1058.1 1120.31 881.3 1502.61 881.7"/>
      <polygon id="zone215" class="cls-8" points="1183.91 355.1 1296.01 355.1 1451.91 198.8 1488.21 235.3 1579.81 235.2 1579.81 314.3 1434.61 314.3 1317.81 431 1317.81 469 1183.91 469.3 1183.91 355.1"/>
      <polygon id="zone342" class="cls-8" points="855.91 496.2 666.21 496.2 666.21 319.3 788.01 319.3 855.71 386.9 855.91 496.2"/>
      <polygon id="zone180" class="cls-8" points="2260.41 992.9 2114.31 845.3 2357.22 845 2401.72 800.9 2527.22 925.7 2526.91 993.4 2260.41 992.9"/>
      <polygon id="zone112" class="cls-8" points="903.61 1367.7 998.41 1367.6 998.11 1563.6 1085.61 1650.8 988.11 1748.7 903.51 1663.9 903.61 1367.7"/>
      <polygon id="zone311" class="cls-8" points="932.91 1048.5 852.81 1048.4 767.41 963.1 855.81 963.1 1043.71 774.5 1120.31 851.4 1120.31 881.3 1099.91 881.3 932.91 1048.5"/>
      <polygon id="zone157" class="cls-8" points="2062.41 911.5 2222.91 1072.9 2457.81 1072.9 2457.81 1208.4 2222.61 1208.5 2222.61 1310.4 1984.01 1310.5 1983.81 1053.2 1952.51 1021.8 2062.41 911.5"/>
      <polygon id="zone252" class="cls-8" points="991.81 532 956.21 496.2 913.01 495.9 1009.71 399.3 1124.21 399.2 991.81 532"/>
    </g>
    <g id="Zonen-3" data-name="Zonen">
      <polygon id="zone130" class="cls-9" points="1606.41 1915.6 1606.01 2032.4 1407.01 2032.4 1406.81 1912.5 1473.11 1912.6 1698.51 1686.9 1698.51 1467.8 1841.21 1467.8 1840.51 1681 1606.41 1915.6"/>
      <polygon id="zone627" class="cls-9" points="1121.51 1912.6 1121.21 2032.7 704.41 2032.4 824.01 1912.6 1121.51 1912.6"/>
      <polygon id="zone142" class="cls-9" points="2142.51 1931.1 2054.31 1931.4 2054.01 1627.7 2267.22 1627.7 2267.11 1682 2267.51 1805.9 2142.51 1931.1"/>
      <polygon id="zone113" class="cls-9" points="998.41 1367.6 903.61 1367.4 903.61 1276.6 1022.11 1158.2 1171.61 1158.2 1171.61 1229.5 1136.61 1229.5 998.41 1367.6"/>
      <polygon id="zone151" class="cls-9" points="1590.81 1368.6 1590.81 1281.4 1467.91 1158.2 1467.91 1101.8 1546.11 1101.7 1698.51 1254 1698.41 1368.6 1590.81 1368.6"/>
      <polyline id="zone313" class="cls-9" points="281.11 1275.3 281.11 1346.3 304.11 1370.1 427.21 1370.1 427.21 1275.3 461.31 1240.9 660.41 1240.5 723.51 1177.4 579.51 1033.5 523.11 1033.6 280.81 1275.4"/>
      <polygon id="zone217" class="cls-9" points="1715.81 713 1802.21 798.7 1740.41 860.5 1502.31 860.6 1502.01 713 1715.81 713"/>
      <polygon id="zone250" class="cls-9" points="1434.61 713 1266.91 881.2 1244.41 881.3 1244.31 783.4 1023.81 563.5 1118.31 469 1317.81 469 1317.71 596.1 1434.61 713"/>
      <polygon id="zone194" class="cls-9" points="2176.31 845.1 2475.61 546.4 2475.41 625.2 2526.72 676.3 2357.22 845 2176.31 845.1"/>
      <polygon id="zone190" class="cls-9" points="2316.72 539.5 2316.81 673.9 2123.22 673.9 2014.11 564.6 2177.41 400.2 2316.72 539.5"/>
      <polygon id="zone216" class="cls-9" points="1780.91 512 1716.51 512 1716.51 431.1 1599.71 314.3 1579.81 314.3 1579.81 235.2 1686.41 235.3 1872.11 421 1780.91 512"/>
      <polygon id="zone344" class="cls-9" points="1325.81 73.1 1325.81 73.2 1183.81 215.4 1183.61 324.5 1009.91 324.5 923.21 237.7 923.21 73 1325.81 73.1"/>
      <polygon id="zone115" class="cls-9" points="1494.61 1767.8 1380.91 1653.4 1470.71 1563.6 1470.71 1368.7 1591.61 1368.6 1591.71 1670.7 1494.61 1767.8"/>
      <polygon id="zone325" class="cls-9" points="3.41 859.7 3.61 610.8 61.21 553.1 309.61 553.4 3.41 859.7"/>
      <polygon id="zone162" class="cls-9" points="2457.81 1208.4 2522.41 1273 2522.72 1388.5 2353.11 1388.5 2353.11 1309.8 2457.81 1208.4"/>
      <polygon id="zone321" class="cls-9" points="855.91 496.2 855.91 597.8 517.31 597.5 517.61 496.2 855.91 496.2"/>
      <polygon id="zone181" class="cls-9" points="2260.41 992.9 2457.81 993.4 2457.81 1072.9 2222.91 1072.9 2062.41 911.5 2062.51 845.5 2114.22 845.3 2260.41 992.9"/>
      <polygon id="zone144" class="cls-9" points="2309.61 1481.8 2309.61 1481.8 2131.51 1481.8 2059.11 1409.5 2059.31 1310.8 2222.72 1310.2 2222.72 1388.2 2353.22 1388.2 2352.91 1438.4 2309.61 1481.8"/>
    </g>
    <g id="Ringzonen_aussen" data-name="Ringzonen aussen">
      <polygon id="zone301" class="cls-10" points="743.31 869.1 816.91 869.1 868.91 817.1 868.91 743.5 818.01 691.5 743.31 691.5 691.31 743.5 691.31 817.1 705.81 830.9 639.01 897.7 597.31 856.9 597.11 704.4 704.81 597.7 855.91 597.8 962.91 704.6 962.91 856 855.81 963.1 704.41 963.1 643.51 902.2 710.01 835.7 743.31 869.1"/>
      <path id="zone201" class="cls-10" d="M1716.6,433.1V598.3L1599.8,715.1H1434.6l-116.7-117v-165l116.8-116.7h165.1Zm-236.2-6.2-52,52v73.6l52,52H1554l52-52V478.9l-52-52Z" transform="translate(-0.09 -2)"/>
      <polygon id="zone101" class="cls-10" points="1136.61 1702.1 998.11 1563.6 998.11 1367.9 1136.61 1229.5 1332.31 1229.5 1470.71 1367.9 1470.71 1563.6 1332.31 1702.1 1136.61 1702.1"/>
    </g>
    <g id="Zentrumszonen">
      <polygon id="zone300" class="cls-11" points="743.31 869.1 691.31 817.1 691.31 743.5 743.31 691.5 816.91 691.5 868.91 743.5 868.91 817.1 816.91 869.1 743.31 869.1"/>
      <polygon id="zone200" class="cls-11" points="1480.31 602.5 1428.31 550.5 1428.31 476.9 1480.31 424.8 1553.91 424.8 1606.01 476.9 1606.01 550.5 1553.91 602.5 1480.31 602.5"/>
      <polygon id="zone100" class="cls-11" points="1188.21 1580.7 1120.11 1512.6 1120.11 1416.3 1188.21 1348.2 1284.51 1348.2 1352.61 1416.3 1352.61 1512.6 1284.51 1580.7 1188.21 1580.7"/>
    </g>
  </g>
  <g id="Bielersee">
    <g id="Bielersee-2">
      <path id="lakebiel" class="cls-12" d="M524.9,1089.3a21.6,21.6,0,0,1-13.4,5.5h-4.7c-4.3,0-9.7,1.9-12,4.2s-7.7,4.3-12,4.3H459.3c-4.3,0-5.3-2.5-2.3-5.5l41.9-41.9c3-3,2-5.5-2.3-5.5h-7.3a21.8,21.8,0,0,0-13.4,5.5L434,1097.8a21.8,21.8,0,0,1-13.4,5.5H400.7a7.8,7.8,0,0,1-7.8-7.8h0v-.9a22.1,22.1,0,0,1,5.6-13.4L643.6,836a21.6,21.6,0,0,1,13.4-5.5l50.7.3a7.9,7.9,0,0,1,7.8,7.9v5.4a21.7,21.7,0,0,1-5.6,13.4L657,910.1a21.6,21.6,0,0,0-5.5,13.4V955a21.6,21.6,0,0,1-5.5,13.4Z" transform="translate(-0.09 -2)"/>
      <path class="cls-13" d="M524.9,1089.3a21.6,21.6,0,0,1-13.4,5.5h-4.7c-4.3,0-9.7,1.9-12,4.2s-7.7,4.3-12,4.3H459.3c-4.3,0-5.3-2.5-2.3-5.5l41.9-41.9c3-3,2-5.5-2.3-5.5h-7.3a21.8,21.8,0,0,0-13.4,5.5L434,1097.8a21.8,21.8,0,0,1-13.4,5.5H400.7a7.8,7.8,0,0,1-7.8-7.8h0v-.9a22.1,22.1,0,0,1,5.6-13.4L643.6,836a21.6,21.6,0,0,1,13.4-5.5l50.7.3a7.9,7.9,0,0,1,7.8,7.9v5.4a21.7,21.7,0,0,1-5.6,13.4L657,910.1a21.6,21.6,0,0,0-5.5,13.4V955a21.6,21.6,0,0,1-5.5,13.4Z" transform="translate(-0.09 -2)"/>
    </g>
    <g>
      <path class="cls-14" d="M538.6,974h-2.8V962.4h2.9c2.2,0,3.2,1.2,3.2,2.9a2.6,2.6,0,0,1-1.9,2.6h0a2.6,2.6,0,0,1,2.2,2.9C542.2,972.4,541.1,974,538.6,974Zm-.2-10.4h-1.1v3.8h.9c1.6,0,2.4-.7,2.4-2s-.7-1.8-2.3-1.8Zm.3,5h-1.4v4.2h1.2a2,2,0,0,0,2.2-2.1,1.9,1.9,0,0,0-2.1-2.1Z" transform="translate(-0.09 -2)"/>
      <path class="cls-14" d="M545.4,963.8a.8.8,0,0,1-.8-.8.9.9,0,1,1,1.7,0,.8.8,0,0,1-.79.81Zm-.7,10.2v-8.5h1.4V974Z" transform="translate(-0.09 -2)"/>
      <path class="cls-14" d="M549.8,970.2c0,2,.8,2.9,2.3,2.9a3.6,3.6,0,0,0,1.9-.7v1.3a5.7,5.7,0,0,1-2.4.5c-2.2,0-3.4-1.7-3.4-4.3s1.2-4.3,3.3-4.3,3,1.5,3,4v.7Zm1.7-3.7c-.9,0-1.7.7-1.7,2.6h3.4C553.2,967.4,552.6,966.5,551.5,966.5Z" transform="translate(-0.09 -2)"/>
      <path class="cls-14" d="M556.8,974V961.6h1.4V974Z" transform="translate(-0.09 -2)"/>
      <path class="cls-14" d="M561.9,970.2c0,2,.8,2.9,2.3,2.9a3.6,3.6,0,0,0,1.9-.7v1.3a5.7,5.7,0,0,1-2.4.5c-2.2,0-3.4-1.7-3.4-4.3s1.2-4.3,3.3-4.3,3,1.5,3,4v.7Zm1.7-3.7c-.9,0-1.7.7-1.7,2.6h3.4C565.2,967.4,564.7,966.5,563.6,966.5Z" transform="translate(-0.09 -2)"/>
      <path class="cls-14" d="M572.1,966.8c-1.1,0-1.8.9-1.8,2.8v4.5h-1.5v-6.6a10.29,10.29,0,0,0-.1-1.8h1.4V967h0a2.3,2.3,0,0,1,2.4-1.4V967Z" transform="translate(-0.09 -2)"/>
      <path class="cls-14" d="M576.2,974.1a5.1,5.1,0,0,1-2.3-.5v-1.3a3.9,3.9,0,0,0,2,.6c1.1,0,1.6-.5,1.6-1.2s-3.7-1.2-3.7-3.9a2.5,2.5,0,0,1,2.49-2.51h.21a5.1,5.1,0,0,1,1.8.3v1.2a4.1,4.1,0,0,0-1.7-.4c-.9,0-1.4.5-1.4,1.2s3.6,1.2,3.6,3.8a2.5,2.5,0,0,1-2.29,2.69Z" transform="translate(-0.09 -2)"/>
      <path class="cls-14" d="M582.2,970.2c0,2,.8,2.9,2.3,2.9a3.6,3.6,0,0,0,1.9-.7v1.3a5.7,5.7,0,0,1-2.4.5c-2.2,0-3.4-1.7-3.4-4.3s1.2-4.3,3.3-4.3,3,1.5,3,4v.7Zm1.7-3.7c-.9,0-1.7.7-1.7,2.6h3.4c0-1.7-.5-2.6-1.7-2.6Z" transform="translate(-0.09 -2)"/>
      <path class="cls-14" d="M590.2,970.2c0,2,.8,2.9,2.3,2.9a3.6,3.6,0,0,0,1.9-.7v1.3a5.7,5.7,0,0,1-2.4.5c-2.2,0-3.4-1.7-3.4-4.3s1.2-4.3,3.3-4.3,3,1.5,3,4v.7Zm1.7-3.7c-.9,0-1.7.7-1.7,2.6h3.4c0-1.7-.5-2.6-1.6-2.6Z" transform="translate(-0.09 -2)"/>
      <path class="cls-14" d="M519.7,990.6V979h1.5v10.3H525v1.3Z" transform="translate(-0.09 -2)"/>
      <path class="cls-14" d="M531.1,990.6v-1.1h0a2.6,2.6,0,0,1-2.4,1.3,2.3,2.3,0,0,1-2.4-2.2c0-.07,0-.14,0-.2,0-1.6,1.1-2.9,4-2.9h.8v-.4a2.1,2.1,0,0,0-.3-1.4,1.7,1.7,0,0,0-1.4-.5,3,3,0,0,0-2.2.9v-1.3a4.5,4.5,0,0,1,2.4-.7,3.2,3.2,0,0,1,2.3.8,2.6,2.6,0,0,1,.7,2.1v4.4a12.71,12.71,0,0,0,.1,1.3Zm-.1-4.1h-1c-1.6,0-2.4.8-2.4,1.8a1.3,1.3,0,0,0,1.4,1.5,2,2,0,0,0,2-2s0-.07,0-.1Z" transform="translate(-0.09 -2)"/>
      <path class="cls-14" d="M538.3,990.7c-2.5,0-3.7-1.9-3.7-4.3s1.4-4.4,3.8-4.4a4.1,4.1,0,0,1,1.7.3v1.3a3.1,3.1,0,0,0-1.6-.4c-1.4,0-2.3.9-2.3,3.2s.9,3.1,2.3,3.1a3.7,3.7,0,0,0,1.7-.4v1.3A5,5,0,0,1,538.3,990.7Z" transform="translate(-0.09 -2)"/>
      <path class="cls-14" d="M550.9,990.6v-1.2h0a2.4,2.4,0,0,1-2.2,1.4c-1.7,0-2.9-1.4-2.9-4.3s1.2-4.3,2.9-4.3a2.3,2.3,0,0,1,2.2,1.2h0v-5.1h1.4v10.9a11,11,0,0,0,.1,1.6Zm-2-7.4c-1.3,0-1.9,1.1-1.9,3.2s.6,3.2,1.9,3.2,1.9-1.1,1.9-3.2-.5-3.3-1.8-3.3Z" transform="translate(-0.09 -2)"/>
      <path class="cls-14" d="M555.9,986.8c0,2,.8,2.9,2.3,2.9a3.6,3.6,0,0,0,1.9-.7v1.3a5.7,5.7,0,0,1-2.4.5c-2.2,0-3.4-1.7-3.4-4.3s1.2-4.3,3.3-4.3,3,1.5,3,4v.7Zm1.7-3.7c-.9,0-1.7.7-1.7,2.6h3.4c0-1.7-.6-2.6-1.7-2.6Z" transform="translate(-0.09 -2)"/>
      <path class="cls-14" d="M569.9,990.6h-2.8V979H570c2.2,0,3.2,1.2,3.2,2.9a2.6,2.6,0,0,1-1.9,2.6h0a2.6,2.6,0,0,1,2.2,2.9C573.5,989,572.4,990.6,569.9,990.6Zm-.2-10.4h-1.1V984h.9c1.6,0,2.4-.7,2.4-2s-.7-1.8-2.2-1.8Zm.3,5h-1.4v4.2h1.2a2,2,0,0,0,2.2-2.1,1.9,1.9,0,0,0-1.69-2.09H570Z" transform="translate(-0.09 -2)"/>
      <path class="cls-14" d="M576.8,980.4a.8.8,0,0,1-.8-.8h0a.9.9,0,1,1,1.7,0,.8.8,0,0,1-.79.81Zm-.7,10.2v-8.5h1.4v8.5Z" transform="translate(-0.09 -2)"/>
      <path class="cls-14" d="M581.1,986.8c0,2,.8,2.9,2.3,2.9a3.6,3.6,0,0,0,1.9-.7v1.3a5.7,5.7,0,0,1-2.4.5c-2.2,0-3.4-1.7-3.4-4.3s1.2-4.3,3.3-4.3,3,1.5,3,4v.7Zm1.7-3.7c-.9,0-1.7.7-1.7,2.6h3.4c0-1.7-.5-2.6-1.6-2.6Z" transform="translate(-0.09 -2)"/>
      <path class="cls-14" d="M592.7,990.6v-5.5c0-1.3-.5-1.9-1.4-1.9s-1.8.8-1.8,2.3v5.1h-1.4V984a10.87,10.87,0,0,0-.1-1.8h1.3v1.3h0a2.2,2.2,0,0,1,2.1-1.4c1.5,0,2.5.8,2.5,2.7v5.9Z" transform="translate(-0.09 -2)"/>
      <path class="cls-14" d="M601.3,990.6v-5.5c0-1.3-.5-1.9-1.4-1.9s-1.8.8-1.8,2.3v5.1h-1.4V984a10.87,10.87,0,0,0-.1-1.8h1.3v1.3h0a2.2,2.2,0,0,1,2.1-1.4c1.5,0,2.5.8,2.5,2.7v5.9Z" transform="translate(-0.09 -2)"/>
      <path class="cls-14" d="M606.4,986.8c0,2,.8,2.9,2.3,2.9a3.6,3.6,0,0,0,1.9-.7v1.3a5.7,5.7,0,0,1-2.4.5c-2.2,0-3.4-1.7-3.4-4.3s1.2-4.3,3.3-4.3,3,1.5,3,4v.7Zm1.7-3.7c-.9,0-1.7.7-1.7,2.6h3.4c-.1-1.7-.6-2.6-1.7-2.6Z" transform="translate(-0.09 -2)"/>
    </g>
  </g>
</svg>
