<?xml version="1.0" encoding="utf-8"?>
<!-- Generator: Adobe Illustrator 21.0.1, SVG Export Plug-In . SVG Version: 6.00 Build 0)  -->
<svg version="1.1" id="zonenplan-svg" xmlns="http://www.w3.org/2000/svg" xmlns:xlink="http://www.w3.org/1999/xlink" x="0px"
	 y="0px" viewBox="0 0 2531.7 2246.4" style="enable-background:new 0 0 2531.7 2246.4;" xml:space="preserve">
<style type="text/css">
	.st0{fill:#EDF0F4;stroke:#FFFFFF;stroke-width:3;stroke-miterlimit:10;}
	.st1{fill:#E4E8EF;stroke:#FFFFFF;stroke-width:3;stroke-miterlimit:10;}
	.st2{fill:#CBD3E0;stroke:#FFFFFF;stroke-width:3;stroke-miterlimit:10;}
	.st3{fill:#C7CFDD;stroke:#FFFFFF;stroke-width:3;stroke-miterlimit:10;}
	.st4{fill:#FCF7E0;stroke:#FFFFFF;stroke-width:3;stroke-miterlimit:10;}
	.st5{fill:#FCF7E0;stroke:#FFFFFF;stroke-miterlimit:10;}
	.st6{fill:#F7EAAD;stroke:#FFFFFF;stroke-width:3;stroke-miterlimit:10;}
	.st7{fill:#F1DB6F;stroke:#FFFFFF;stroke-width:3;stroke-miterlimit:10;}
	.st8{fill:#EBCC32;stroke:#FFFFFF;stroke-width:3;stroke-miterlimit:10;}
	.st9{fill:#E7C257;stroke:#FFFFFF;stroke-width:3;stroke-miterlimit:10;}
	.st10{fill:#F7ECCB;stroke:#FFFFFF;stroke-width:3;stroke-miterlimit:10;}
	.st11{fill:#A9D3E6;stroke:#FFFFFF;stroke-width:3;stroke-miterlimit:10;}
	.st12{fill:none;stroke:#FFFFFF;stroke-width:3;stroke-miterlimit:10;}
	.st13{fill:#FFFFFF;}
</style>
<g id="Zonen_gelb">
	<g id="blaue_Zonen_8_">
		<polygon id="zone447" class="st0" points="2470.6,1807.7 2267.4,1807.7 2267.3,1684 2470.6,1684 		"/>
		<polygon id="zone324" class="st0" points="156.8,708.3 281.7,832.7 281.7,861.9 3.7,861.5 		"/>
		<polygon id="zone351" class="st0" points="517.4,389.9 517.7,498.2 367,498.2 313.9,555 61.3,555 79.8,536.4 167.1,449.4 
			167.1,389.1 207.7,389.2 517.4,390 		"/>
		<polygon id="zone279" class="st0" points="1865.9,210 1976,319.2 1871.9,423 1686.4,237.2 1488.3,237.3 1325.9,75.2 1521.3,75.4 
			1593.4,3.5 1703.9,3.5 1704.3,209.8 		"/>
		<polygon id="zone281" class="st0" points="2177.8,319.2 1976,319.2 1975.8,107.9 2080,3.7 2299,3.7 2371.9,76.5 2372.1,159.7 
			2304.9,226.7 2199.1,226.7 2177.8,248 		"/>
	</g>
	<g id="Blaue_Zonen:_16_">
		<polygon id="zone282" class="st1" points="1704,3.5 2079.3,3.7 1975.7,107.8 1704,107 		"/>
	</g>
	<g id="blauen_Zonen_30_">
		<polygon id="zone697" class="st2" points="788.1,1282.6 615,1456 530.9,1372 723.9,1179.2 788.2,1244.1 		"/>
		<polygon id="zone323" class="st3" points="400.6,715.7 281.9,832.7 157,708.3 274.9,589.9 		"/>
		<polygon id="zone352" class="st3" points="517.4,390 166.7,389.1 481.8,74.6 586.3,74.5 586.3,321.3 517.4,389.9 		"/>
		<polygon id="zone446" class="st3" points="2470.5,1684 2352.9,1683.9 2353.2,1522.1 2353,1492.3 2470.1,1492.3 		"/>
		<polygon id="zone197" class="st2" points="2526.9,927.7 2401.8,802.9 2500.8,704 2526.8,678.4 		"/>
		<polygon id="zone280" class="st3" points="1704,107 1975.8,107.8 1976,319.2 1865.9,210 1704.3,209.8 		"/>
	</g>
	<g id="Zonen_15">
		<polygon id="zone125" class="st4" points="1698.6,1688.9 1494.8,1893 1494.7,1769.8 1591.8,1672 1591.8,1370.7 1698.6,1370.7 		
			"/>
		<polygon id="zone147" class="st4" points="1924,1498.2 2054.1,1629.6 2054.1,1758 1915.6,1757.9 1840.6,1683 1841.3,1467.7 
			1923.9,1467.6 		"/>
		<polygon id="zone156" class="st4" points="1984.1,1312.3 1924.8,1371.2 1698.6,1371.2 1698.6,1307.4 1836.1,1307.4 1836.3,1139.7 
			1952.6,1023.8 1983.9,1055.2 		"/>
		<polygon id="zone140" class="st4" points="2131.6,1483.9 2267.2,1483.9 2267.2,1629.7 2167.3,1630 2059.4,1522.1 2059.4,1411.2 		
			"/>
		<polygon id="zone161" class="st4" points="2353,1492.3 2353.1,1390.5 2522.1,1390.5 2522.1,1440.2 2470.1,1492.3 		"/>
		<polygon id="zone114" class="st4" points="1492.3,1160.2 1591.5,1259.8 1591.7,1370.6 1470.8,1370.7 1332.4,1231.5 1171.7,1231.5 
			1171.7,1160.2 		"/>
		<polygon id="zone150" class="st4" points="1671.2,1228.5 1546.1,1103.7 1546.1,986.2 1502.5,942.9 1740.3,942.6 1806.6,1009 
			1806.4,1139.7 1758.7,1139.7 		"/>
		<polygon id="zone196" class="st4" points="2062.5,913.5 1989.3,987.1 1715.9,715 1599.8,715 1716.6,598.2 1716.6,514 1781,514 
			1896.5,629.2 1896.5,732 2062.3,897 		"/>
		<polygon id="zone253" class="st4" points="1124.3,360.9 1124.4,401.1 1009.9,401.2 1010,326.5 1124.3,326.4 		"/>
		<polygon id="zone345" class="st4" points="1184.1,217.4 1326.1,75.4 1452.2,200.8 1296.1,357.1 1184,357.1 		"/>
		<polygon id="zone353" class="st5" points="788.1,321.3 586,321.3 586,74.5 788.1,74.5 		"/>
		<polygon id="zone626" class="st4" points="1473,1914.6 1472.4,2034.3 1121.4,2034.7 1121.4,1915 		"/>
		<polygon id="zone164" class="st4" points="2457.9,1210.5 2353.2,1311.8 2222.8,1312.2 2222.8,1210.5 2457.9,1210.5 		"/>
		<polygon id="zone218" class="st4" points="1267.2,883.3 1434.7,715 1502.1,715 1502.6,883.3 		"/>
		<polygon id="zone696" class="st4" points="660.5,1242.6 531.1,1372.1 427.5,1372.1 427.3,1277.2 427.3,1277.2 461.4,1242.9 		"/>
		<polygon id="zone192" class="st4" points="2063.8,616.4 2123.3,675.9 2316.9,676 2316.9,706.9 2176.4,847.1 2062.6,847.5 		"/>
		<polygon id="zone116" class="st4" points="1494.7,1769.8 1459.9,1804.5 1041.9,1804.5 988.1,1750.6 1085.6,1652.6 1136.7,1704.1 
			1332.4,1704.1 1381,1655.4 		"/>
		<polygon id="zone699" class="st4" points="824.2,1914.4 787.9,1878.5 787.4,1369.7 903.7,1369.7 903.6,1665.9 987.9,1750.8 		"/>
		<polygon id="zone310" class="st4" points="1020.9,1160.2 743.2,1160.2 853,1050.5 933,1050.5 1100,883.3 1120.4,883.3 
			1120.9,1060.4 		"/>
		<polygon id="zone331" class="st4" points="1139.4,680.4 962.6,857.6 963.3,706.2 856,599.8 856,498.2 956.2,498 		"/>
		<polygon id="zone315" class="st4" points="475.4,1023.4 400.7,947.7 400.6,715.6 517.5,599.4 704.9,599.4 597.6,706.4 
			597.4,859.1 619,880 		"/>
	</g>
	<g id="Zonen_40_">
		<polygon id="zone131" class="st6" points="1606.1,2034.4 1606.5,1917.6 1840.6,1683 1915.6,1757.9 1915.7,1933.5 1808.1,1933.5 
			1706.9,2034.6 		"/>
		<polygon id="zone145" class="st6" points="2352.9,1683.9 2267.2,1684 2267.2,1483.9 2309.8,1483.9 2353,1440.4 		"/>
		<polygon id="zone141" class="st6" points="2167.3,1629.8 2054,1629.6 1924.1,1498.3 1924.7,1370.9 1984.1,1312.5 2059.4,1312.5 
			2059.4,1521.9 		"/>
		<polygon id="zone153" class="st6" points="1740.5,862.5 1740.5,942.6 1502.6,942.7 1502.6,862.9 		"/>
		<polygon id="zone124" class="st6" points="1467.9,1060 1467.9,1159.9 1021.8,1160.3 1120.9,1060.4 		"/>
		<polygon id="zone195" class="st6" points="2062.4,897 1896.8,732.3 1896.8,629.4 1781,514 1871.9,423 2063.8,616.4 		"/>
		<polygon id="zone251" class="st6" points="1024.3,565.3 992.2,533.8 1124.3,401.2 1124.3,326.5 1184,326.5 1184,471.3 1118.3,471 
					"/>
		<polygon id="zone343" class="st6" points="923.2,75 923.6,239.7 1010.5,326.6 1009.8,401.5 913.1,497.9 856,498.2 856,388.8 
			788.1,321.3 788.1,74.5 		"/>
		<polygon id="zone155" class="st6" points="1806.4,1139.7 1806.6,1010 1909.8,907.8 1989.2,987.1 1836.3,1139.7 		"/>
		<polygon id="zone628" class="st6" points="1394.7,2034.2 1394.7,2124.4 1312.4,2207.4 1144,2207.4 1108.4,2242.9 780.8,2242.9 
			705,2167 705,2034.4 		"/>
		<polygon id="zone191" class="st6" points="2316.9,706.9 2316.8,541.5 2177.5,402.2 2177.9,319.2 2372.3,319.2 2478.2,424.3 
			2478,546.1 		"/>
		<polygon id="zone163" class="st6" points="2353.2,1311.8 2353.2,1390.2 2222.8,1390.2 2222.8,1312.4 		"/>
		<polygon id="zone698" class="st6" points="787.4,1628.4 615.3,1456.6 615.3,1455.5 788.1,1282.6 787.4,1369.7 		"/>
		<polygon id="zone312" class="st6" points="852.8,1050.5 723.6,1179.4 578.9,1034.8 650.1,910.7 704.5,965.1 767.4,965.1 		"/>
		<polygon id="zone229" class="st6" points="1139.3,680.4 1244.4,785.4 1244.4,883.3 1120.4,883.3 1120.4,853.4 1043.7,776.6 		"/>
		<polygon id="zone341" class="st6" points="666.3,498.2 517.7,498.2 517.4,389.9 585.5,321.3 666.3,321.3 		"/>
	</g>
	<g id="Zonen_70_">
		<polygon id="zone126" class="st7" points="1494.7,1914.6 1140.9,1914.6 824.2,1914.4 988.1,1750.6 1041.9,1804.5 1459.9,1804.5 
			1494.7,1769.8 		"/>
		<polygon id="zone143" class="st7" points="2054.5,1933.4 1915.7,1933.4 1915.6,1758 2054.1,1758 		"/>
		<polygon id="zone146" class="st7" points="1924.7,1371.2 1924.1,1469.8 1841.2,1469.8 1841.3,1469.8 1698.6,1469.8 1698.6,1371.2 
					"/>
		<polygon id="zone152" class="st7" points="1909.4,907.6 1806.6,1010 1740.5,942.6 1740.4,862.5 1802.5,800.7 		"/>
		<polygon id="zone177" class="st7" points="1021.8,1160.3 903.7,1278.3 903.7,1369.7 788.2,1369.7 787.3,1369.7 788.2,1244.1 
			724.2,1179 742.9,1160.4 		"/>
		<polygon id="zone154" class="st7" points="1836.3,1307.4 1698.6,1307.4 1698.6,1256 1671.2,1228.6 1758.7,1139.7 1836.3,1139.7 		
			"/>
		<polygon id="zone314" class="st7" points="281.7,832.7 400.7,715.7 400.5,947.6 475.5,1022.6 511,1048.2 281.2,1277.3 		"/>
		<polygon id="zone322" class="st7" points="400.6,715.5 274.9,589.9 367.3,498.2 517.7,498.2 517.4,599.5 		"/>
		<polygon id="zone193" class="st7" points="2014.2,566.6 1871.9,423 1976,319.2 2177.9,319.2 2177.5,402.2 		"/>
		<polygon id="zone228" class="st7" points="1502.7,883.7 1502.6,942.7 1546.1,986.2 1546.2,1103.6 1467.9,1103.8 1467.9,1059.4 
			1121,1060.1 1120.4,883.3 		"/>
		<polygon id="zone215" class="st7" points="1184,357.1 1296.1,357.1 1452,200.8 1488.3,237.3 1579.9,237.2 1579.9,316.3 
			1434.7,316.3 1317.9,433 1317.9,471 1184,471.3 		"/>
		<polygon id="zone342" class="st7" points="856,498.2 666.3,498.2 666.3,321.3 788.1,321.3 855.8,388.9 		"/>
		<polygon id="zone180" class="st7" points="2260.5,994.9 2114.4,847.3 2357.3,847 2401.8,802.9 2527.3,927.7 2527,995.4 		"/>
		<polygon id="zone112" class="st7" points="903.7,1369.7 998.5,1369.6 998.2,1565.6 1085.7,1652.8 988.2,1750.7 903.6,1665.9 		"/>
		<polygon id="zone311" class="st7" points="933,1050.5 852.9,1050.4 767.5,965.1 855.9,965.1 1043.8,776.5 1120.4,853.4 
			1120.4,883.3 1100,883.3 		"/>
		<polygon id="zone157" class="st7" points="2062.5,913.5 2223,1074.9 2457.9,1074.9 2457.9,1210.4 2222.7,1210.5 2222.7,1312.4 
			1984.1,1312.5 1983.9,1055.2 1952.6,1023.8 		"/>
		<polygon id="zone252" class="st7" points="991.9,534 956.3,498.2 913.1,497.9 1009.8,401.3 1124.3,401.2 		"/>
	</g>
	<g id="Zonen_100_">
		<polygon id="zone130" class="st8" points="1606.5,1917.6 1606.1,2034.4 1407.1,2034.4 1406.9,1914.5 1473.2,1914.6 1698.6,1688.9 
			1698.6,1469.8 1841.3,1469.8 1840.6,1683 		"/>
		<polygon id="zone627" class="st8" points="1121.6,1914.6 1121.3,2034.7 704.5,2034.4 824.1,1914.6 		"/>
		<polygon id="zone142" class="st8" points="2142.6,1933.1 2054.4,1933.4 2054.1,1629.7 2267.3,1629.7 2267.2,1684 2267.6,1807.9 		
			"/>
		<polygon id="zone113" class="st8" points="998.5,1369.6 903.7,1369.4 903.7,1278.6 1022.2,1160.2 1171.7,1160.2 1171.7,1231.5 
			1136.7,1231.5 		"/>
		<polygon id="zone151" class="st8" points="1590.9,1370.6 1590.9,1283.4 1468,1160.2 1468,1103.8 1546.2,1103.7 1698.6,1256 
			1698.5,1370.6 		"/>
		<polyline id="zone313" class="st8" points="281.2,1277.3 281.2,1348.3 304.2,1372.1 427.3,1372.1 427.3,1277.3 461.4,1242.9 
			660.5,1242.5 723.6,1179.4 579.6,1035.5 523.2,1035.6 280.9,1277.4 		"/>
		<polygon id="zone217" class="st8" points="1715.9,715 1802.3,800.7 1740.5,862.5 1502.4,862.6 1502.1,715 		"/>
		<polygon id="zone250" class="st8" points="1434.7,715 1267,883.2 1244.5,883.3 1244.4,785.4 1023.9,565.5 1118.4,471 1317.9,471 
			1317.8,598.1 		"/>
		<polygon id="zone194" class="st8" points="2176.4,847.1 2475.7,548.4 2475.5,627.2 2526.8,678.3 2357.3,847 		"/>
		<polygon id="zone190" class="st8" points="2316.8,541.5 2316.9,675.9 2123.3,675.9 2014.2,566.6 2177.5,402.2 		"/>
		<polygon id="zone216" class="st8" points="1781,514 1716.6,514 1716.6,433.1 1599.8,316.3 1579.9,316.3 1579.9,237.2 
			1686.5,237.3 1872.2,423 		"/>
		<polygon id="zone344" class="st8" points="1325.9,75.1 1325.9,75.2 1183.9,217.4 1183.7,326.5 1010,326.5 923.3,239.7 923.3,75 		
			"/>
		<polygon id="zone115" class="st8" points="1494.7,1769.8 1381,1655.4 1470.8,1565.6 1470.8,1370.7 1591.7,1370.6 1591.8,1672.7 		
			"/>
		<polygon id="zone325" class="st8" points="3.5,861.7 3.7,612.8 61.3,555.1 309.7,555.4 		"/>
		<polygon id="zone162" class="st8" points="2457.9,1210.4 2522.5,1275 2522.8,1390.5 2353.2,1390.5 2353.2,1311.8 		"/>
		<polygon id="zone321" class="st8" points="856,498.2 856,599.8 517.4,599.5 517.7,498.2 		"/>
		<polygon id="zone181" class="st8" points="2260.5,994.9 2457.9,995.4 2457.9,1074.9 2223,1074.9 2062.5,913.5 2062.6,847.5 
			2114.3,847.3 		"/>
		<polygon id="zone144" class="st8" points="2309.7,1483.8 2309.7,1483.8 2131.6,1483.8 2059.2,1411.5 2059.4,1312.8 2222.8,1312.2 
			2222.8,1390.2 2353.3,1390.2 2353,1440.4 		"/>
	</g>
	<g id="Ringzonen_aussen">
		<polygon id="zone301_1_" class="st9" points="743.4,871.1 817,871.1 869,819.1 869,745.5 818.1,693.5 743.4,693.5 691.4,745.5 
			691.4,819.1 705.9,832.9 639.1,899.7 597.4,858.9 597.2,706.4 704.9,599.7 856,599.8 963,706.6 963,858 855.9,965.1 704.5,965.1 
			643.6,904.2 710.1,837.7 		"/>
		<path id="zone201" class="st9" d="M1716.6,433.1v165.2l-116.8,116.8h-165.2l-116.7-117v-165l116.8-116.7h165.1L1716.6,433.1z
			 M1480.4,426.9l-52,52v73.6l52,52h73.6l52-52v-73.6l-52-52H1480.4z"/>
		<polygon id="zone101" class="st9" points="1136.7,1704.1 998.2,1565.6 998.2,1369.9 1136.7,1231.5 1332.4,1231.5 1470.8,1369.9 
			1470.8,1565.6 1332.4,1704.1 		"/>
	</g>
	<g id="Zentrumszonen">
		<polygon id="zone300" class="st10" points="743.4,871.1 691.4,819.1 691.4,745.5 743.4,693.5 817,693.5 869,745.5 869,819.1 
			817,871.1 		"/>
		<polygon id="zone200" class="st10" points="1480.4,604.5 1428.4,552.5 1428.4,478.9 1480.4,426.8 1554,426.8 1606.1,478.9 
			1606.1,552.5 1554,604.5 		"/>
		<polygon id="zone100" class="st10" points="1188.3,1582.7 1120.2,1514.6 1120.2,1418.3 1188.3,1350.2 1284.6,1350.2 
			1352.7,1418.3 1352.7,1514.6 1284.6,1582.7 		"/>
	</g>
</g>
<g id="Bielersee">
	<g id="Bielersee-2">
		<path id="lakebiel" class="st11" d="M524.9,1089.3c-3.7,3.3-8.4,5.3-13.4,5.5h-4.7c-4.3,0-9.7,1.9-12,4.2s-7.7,4.3-12,4.3h-23.5
			c-4.3,0-5.3-2.5-2.3-5.5l41.9-41.9c3-3,2-5.5-2.3-5.5h-7.3c-5,0.3-9.7,2.2-13.4,5.5l-41.9,41.9c-3.7,3.3-8.4,5.2-13.4,5.5h-19.9
			c-4.3,0-7.8-3.5-7.8-7.8l0,0v-0.9c0.3-5,2.3-9.7,5.6-13.4L643.6,836c3.7-3.3,8.4-5.3,13.4-5.5l50.7,0.3c4.3,0.1,7.8,3.6,7.8,7.9
			v5.4c-0.3,5-2.2,9.7-5.6,13.4L657,910.1c-3.3,3.7-5.3,8.4-5.5,13.4V955c-0.2,5-2.2,9.7-5.5,13.4L524.9,1089.3z"/>
		<path class="st12" d="M524.9,1089.3c-3.7,3.3-8.4,5.3-13.4,5.5h-4.7c-4.3,0-9.7,1.9-12,4.2s-7.7,4.3-12,4.3h-23.5
			c-4.3,0-5.3-2.5-2.3-5.5l41.9-41.9c3-3,2-5.5-2.3-5.5h-7.3c-5,0.3-9.7,2.2-13.4,5.5l-41.9,41.9c-3.7,3.3-8.4,5.2-13.4,5.5h-19.9
			c-4.3,0-7.8-3.5-7.8-7.8l0,0v-0.9c0.3-5,2.3-9.7,5.6-13.4L643.6,836c3.7-3.3,8.4-5.3,13.4-5.5l50.7,0.3c4.3,0.1,7.8,3.6,7.8,7.9
			v5.4c-0.3,5-2.2,9.7-5.6,13.4L657,910.1c-3.3,3.7-5.3,8.4-5.5,13.4V955c-0.2,5-2.2,9.7-5.5,13.4L524.9,1089.3z"/>
	</g>
	<g>
		<path class="st13" d="M538.6,974h-2.8v-11.6h2.9c2.2,0,3.2,1.2,3.2,2.9c0,1.2-0.7,2.3-1.9,2.6l0,0c1.4,0.2,2.4,1.5,2.2,2.9
			C542.2,972.4,541.1,974,538.6,974z M538.4,963.6h-1.1v3.8h0.9c1.6,0,2.4-0.7,2.4-2S539.9,963.6,538.4,963.6L538.4,963.6z
			 M538.7,968.6h-1.4v4.2h1.2c1.1,0.1,2.1-0.7,2.2-1.8c0-0.1,0-0.2,0-0.3c0.1-1-0.6-2-1.7-2.1C538.9,968.6,538.7,968.6,538.7,968.6
			L538.7,968.6z"/>
		<path class="st13" d="M545.4,963.8c-0.4,0-0.8-0.4-0.8-0.8c-0.2-0.5,0.1-1,0.6-1.1c0.5-0.2,1,0.1,1.1,0.6c0.1,0.2,0.1,0.4,0,0.6
			c0,0.4-0.4,0.8-0.8,0.8C545.5,963.8,545.4,963.8,545.4,963.8z M544.7,974v-8.5h1.4v8.5H544.7z"/>
		<path class="st13" d="M549.8,970.2c0,2,0.8,2.9,2.3,2.9c0.7,0,1.3-0.3,1.9-0.7v1.3c-0.8,0.3-1.6,0.5-2.4,0.5
			c-2.2,0-3.4-1.7-3.4-4.3s1.2-4.3,3.3-4.3s3,1.5,3,4v0.7L549.8,970.2z M551.5,966.5c-0.9,0-1.7,0.7-1.7,2.6h3.4
			C553.2,967.4,552.6,966.5,551.5,966.5z"/>
		<path class="st13" d="M556.8,974v-12.4h1.4V974H556.8z"/>
		<path class="st13" d="M561.9,970.2c0,2,0.8,2.9,2.3,2.9c0.7,0,1.3-0.3,1.9-0.7v1.3c-0.8,0.3-1.6,0.5-2.4,0.5
			c-2.2,0-3.4-1.7-3.4-4.3s1.2-4.3,3.3-4.3s3,1.5,3,4v0.7L561.9,970.2z M563.6,966.5c-0.9,0-1.7,0.7-1.7,2.6h3.4
			C565.2,967.4,564.7,966.5,563.6,966.5z"/>
		<path class="st13" d="M572.1,966.8c-1.1,0-1.8,0.9-1.8,2.8v4.5h-1.5v-6.6c0-0.6,0-1.3-0.1-1.8h1.4v1.3l0,0c0.4-1,1.4-1.5,2.4-1.4
			v1.4L572.1,966.8z"/>
		<path class="st13" d="M576.2,974.1c-0.8,0-1.6-0.2-2.3-0.5v-1.3c0.6,0.4,1.3,0.6,2,0.6c1.1,0,1.6-0.5,1.6-1.2s-3.7-1.2-3.7-3.9
			c0-1.4,1.1-2.5,2.5-2.5c0.1,0,0.1,0,0.2,0c0.6,0,1.2,0.1,1.8,0.3v1.2c-0.5-0.3-1.1-0.4-1.7-0.4c-0.9,0-1.4,0.5-1.4,1.2
			s3.6,1.2,3.6,3.8c0.1,1.4-0.9,2.6-2.3,2.7C576.4,974.1,576.3,974.1,576.2,974.1z"/>
		<path class="st13" d="M582.2,970.2c0,2,0.8,2.9,2.3,2.9c0.7,0,1.3-0.3,1.9-0.7v1.3c-0.8,0.3-1.6,0.5-2.4,0.5
			c-2.2,0-3.4-1.7-3.4-4.3s1.2-4.3,3.3-4.3s3,1.5,3,4v0.7L582.2,970.2z M583.9,966.5c-0.9,0-1.7,0.7-1.7,2.6h3.4
			C585.6,967.4,585.1,966.5,583.9,966.5L583.9,966.5z"/>
		<path class="st13" d="M590.2,970.2c0,2,0.8,2.9,2.3,2.9c0.7,0,1.3-0.3,1.9-0.7v1.3c-0.8,0.3-1.6,0.5-2.4,0.5
			c-2.2,0-3.4-1.7-3.4-4.3s1.2-4.3,3.3-4.3s3,1.5,3,4v0.7L590.2,970.2z M591.9,966.5c-0.9,0-1.7,0.7-1.7,2.6h3.4
			C593.6,967.4,593.1,966.5,591.9,966.5L591.9,966.5z"/>
		<path class="st13" d="M519.7,990.6V979h1.5v10.3h3.8v1.3L519.7,990.6z"/>
		<path class="st13" d="M531.1,990.6v-1.1l0,0c-0.5,0.9-1.4,1.4-2.4,1.3c-1.3,0.1-2.3-0.9-2.4-2.2c0-0.1,0-0.1,0-0.2
			c0-1.6,1.1-2.9,4-2.9h0.8v-0.4c0.1-0.5,0-1-0.3-1.4c-0.4-0.4-0.9-0.6-1.4-0.5c-0.8,0-1.6,0.3-2.2,0.9v-1.3
			c0.7-0.5,1.5-0.7,2.4-0.7c0.8,0,1.7,0.2,2.3,0.8c0.5,0.6,0.8,1.3,0.7,2.1v4.4c0,0.4,0,0.9,0.1,1.3L531.1,990.6z M531,986.5h-1
			c-1.6,0-2.4,0.8-2.4,1.8c-0.1,0.7,0.4,1.4,1.1,1.5c0.1,0,0.2,0,0.3,0c1.1,0,2-0.9,2-2c0,0,0-0.1,0-0.1V986.5z"/>
		<path class="st13" d="M538.3,990.7c-2.5,0-3.7-1.9-3.7-4.3s1.4-4.4,3.8-4.4c0.6,0,1.2,0.1,1.7,0.3v1.3c-0.5-0.3-1-0.4-1.6-0.4
			c-1.4,0-2.3,0.9-2.3,3.2s0.9,3.1,2.3,3.1c0.6,0,1.2-0.1,1.7-0.4v1.3C539.6,990.6,538.9,990.7,538.3,990.7z"/>
		<path class="st13" d="M550.9,990.6v-1.2l0,0c-0.4,0.9-1.3,1.4-2.2,1.4c-1.7,0-2.9-1.4-2.9-4.3s1.2-4.3,2.9-4.3
			c0.9-0.1,1.8,0.4,2.2,1.2l0,0v-5.1h1.4v10.9c0,0.3,0,0.9,0.1,1.6L550.9,990.6z M548.9,983.2c-1.3,0-1.9,1.1-1.9,3.2
			s0.6,3.2,1.9,3.2s1.9-1.1,1.9-3.2s-0.5-3.3-1.8-3.3L548.9,983.2z"/>
		<path class="st13" d="M555.9,986.8c0,2,0.8,2.9,2.3,2.9c0.7,0,1.3-0.3,1.9-0.7v1.3c-0.8,0.3-1.6,0.5-2.4,0.5
			c-2.2,0-3.4-1.7-3.4-4.3s1.2-4.3,3.3-4.3s3,1.5,3,4v0.7L555.9,986.8z M557.6,983.1c-0.9,0-1.7,0.7-1.7,2.6h3.4
			C559.3,984,558.7,983.1,557.6,983.1L557.6,983.1z"/>
		<path class="st13" d="M569.9,990.6h-2.8V979h2.9c2.2,0,3.2,1.2,3.2,2.9c0,1.2-0.7,2.3-1.9,2.6l0,0c1.4,0.2,2.4,1.5,2.2,2.9
			C573.5,989,572.4,990.6,569.9,990.6z M569.7,980.2h-1.1v3.8h0.9c1.6,0,2.4-0.7,2.4-2S571.2,980.2,569.7,980.2L569.7,980.2z
			 M570,985.2h-1.4v4.2h1.2c1.1,0.1,2.1-0.7,2.2-1.8c0-0.1,0-0.2,0-0.3c0.1-1-0.6-2-1.7-2.1C570.2,985.2,570.1,985.2,570,985.2
			L570,985.2z"/>
		<path class="st13" d="M576.8,980.4c-0.4,0-0.8-0.4-0.8-0.8l0,0c-0.2-0.5,0.1-1,0.6-1.1c0.5-0.2,1,0.1,1.1,0.6
			c0.1,0.2,0.1,0.4,0,0.6c0,0.4-0.4,0.8-0.8,0.8C576.9,980.4,576.8,980.4,576.8,980.4z M576.1,990.6v-8.5h1.4v8.5H576.1z"/>
		<path class="st13" d="M581.1,986.8c0,2,0.8,2.9,2.3,2.9c0.7,0,1.3-0.3,1.9-0.7v1.3c-0.8,0.3-1.6,0.5-2.4,0.5
			c-2.2,0-3.4-1.7-3.4-4.3s1.2-4.3,3.3-4.3s3,1.5,3,4v0.7L581.1,986.8z M582.8,983.1c-0.9,0-1.7,0.7-1.7,2.6h3.4
			C584.5,984,584,983.1,582.8,983.1L582.8,983.1z"/>
		<path class="st13" d="M592.7,990.6v-5.5c0-1.3-0.5-1.9-1.4-1.9s-1.8,0.8-1.8,2.3v5.1h-1.4V984c0-0.6,0-1.2-0.1-1.8h1.3v1.3l0,0
			c0.3-0.9,1.2-1.4,2.1-1.4c1.5,0,2.5,0.8,2.5,2.7v5.9L592.7,990.6z"/>
		<path class="st13" d="M601.3,990.6v-5.5c0-1.3-0.5-1.9-1.4-1.9s-1.8,0.8-1.8,2.3v5.1h-1.4V984c0-0.6,0-1.2-0.1-1.8h1.3v1.3l0,0
			c0.3-0.9,1.2-1.4,2.1-1.4c1.5,0,2.5,0.8,2.5,2.7v5.9L601.3,990.6z"/>
		<path class="st13" d="M606.4,986.8c0,2,0.8,2.9,2.3,2.9c0.7,0,1.3-0.3,1.9-0.7v1.3c-0.8,0.3-1.6,0.5-2.4,0.5
			c-2.2,0-3.4-1.7-3.4-4.3s1.2-4.3,3.3-4.3s3,1.5,3,4v0.7L606.4,986.8z M608.1,983.1c-0.9,0-1.7,0.7-1.7,2.6h3.4
			C609.7,984,609.2,983.1,608.1,983.1L608.1,983.1z"/>
	</g>
</g>
</svg>
