<?xml version="1.0" encoding="utf-8"?>
<!-- Generator: Adobe Illustrator 17.1.0, SVG Export Plug-In . SVG Version: 6.00 Build 0)  -->
<!DOCTYPE svg PUBLIC "-//W3C//DTD SVG 1.1//EN" "http://www.w3.org/Graphics/SVG/1.1/DTD/svg11.dtd">
<svg version="1.1" id="Layer_1" xmlns="http://www.w3.org/2000/svg" xmlns:xlink="http://www.w3.org/1999/xlink" x="0px" y="0px"
	 width="1600px" height="160px" viewBox="0 0 1600 160" enable-background="new 0 0 1600 160" xml:space="preserve">
<path fill="#435D36" stroke="#435D36" stroke-opacity=".5" d="M0,95.8c0,0,75.1-2.8,77.9-4.2c2.8-1.4,50.7-11.1,66.7-15.3c16-4.2,107.6-12.5,122.2-12.5
	c14.6,0,236.1,8.3,244.4,8.3c8.3,0,37.5-1.4,49.3,1.4s68.1,15.3,120.8,15.3c52.8,0,202.1-18.8,256.2-27.8
	c54.2-9,111.8-12.5,111.8-12.5l90.3,8.3l25,4.2c0,0,202.1-9,222.2-12.5c20.1-3.5,84-4.9,93.1,0s43.8,6.9,46.5,10.4
	c2.8,3.5,18.8,12.5,22.9,16s23.6,5,23.6,5h10.4h6.9l9.6-5v85H0V95.8z"/>
</svg>
