<?xml version="1.0" encoding="utf-8"?>
<!-- Generator: Adobe Illustrator 18.1.0, SVG Export Plug-In . SVG Version: 6.00 Build 0)  -->
<svg version="1.1" id="Layer_1" xmlns="http://www.w3.org/2000/svg" xmlns:xlink="http://www.w3.org/1999/xlink" x="0px" y="0px"
	 viewBox="502 340.9 1600 160" enable-background="new 502 340.9 1600 160" xml:space="preserve">
<path fill="#444444" fill-opacity=".8" stroke="#444444" stroke-opacity=".2" stroke-miterlimit="10" d="M502,436.7c0,0,75.1-2.8,77.9-4.2c2.8-1.4,50.7-11.1,66.7-15.3
	c16-4.2,107.6-12.5,122.2-12.5c14.6,0,236.1,8.3,244.4,8.3c8.3,0,44.3-48.7,56.1-45.9c11.8,2.8,70.7,76.7,114,62.6
	c21.3-6.9,109.4-59.9,126.7-51.9c52.8,24.4,98.3,29.3,129.5,24.1c55.2,13.9,51.2-46.8,51.2-46.8l150.9,42.6l25,4.2
	c0,0,202.1-9,222.2-12.5s84-4.9,93.1,0s43.8,6.9,46.5,10.4c2.8,3.5,18.8,12.5,22.9,16c4.1,3.5,23.6,5,23.6,5h10.4h6.9l9.6-5v85H502
	V436.7z"/>
</svg>