<?xml version="1.0" encoding="utf-8"?>
<!-- Generator: Adobe Illustrator 17.1.0, SVG Export Plug-In . SVG Version: 6.00 Build 0)  -->
<!DOCTYPE svg PUBLIC "-//W3C//DTD SVG 1.1//EN" "http://www.w3.org/Graphics/SVG/1.1/DTD/svg11.dtd">
<svg version="1.1" id="Layer_1" xmlns="http://www.w3.org/2000/svg" xmlns:xlink="http://www.w3.org/1999/xlink" x="0px" y="0px"
	 viewBox="0 163 595.3 515.9" enable-background="new 0 163 595.3 515.9" xml:space="preserve">
<g id="Rectangle_1_1_" enable-background="new    ">
	<g id="Rectangle_1">
		<g>
			<polyline fill="#009DDC" points="0,163 595.3,163 595.3,242.4 0,242.4 0,163 			"/>
		</g>
	</g>
</g>
<g id="Rectangle_2_1_" enable-background="new    ">
	<g id="Rectangle_2">
		<g>
			<rect y="242.4" fill="#E8E8E8" width="595.3" height="436.5"/>
		</g>
	</g>
</g>
<g id="w1_1_">
	<g id="Rectangle_3">
		<g>
			<rect x="277.8" y="282" fill="#A7A7A7" width="39.7" height="39.7"/>
		</g>
	</g>
	<g id="Rectangle_3_copy">
		<g>
			<rect x="357.2" y="282" fill="#A7A7A7" width="39.7" height="39.7"/>
		</g>
	</g>
	<g id="Rectangle_3_copy_2">
		<g>
			<rect x="436.5" y="282" fill="#A7A7A7" width="39.7" height="39.7"/>
		</g>
	</g>
	<g id="Rectangle_3_copy_3">
		<g>
			<rect x="515.9" y="282" fill="#A7A7A7" width="39.7" height="39.7"/>
		</g>
	</g>
</g>
<g id="w2_1_">
	<g id="Rectangle_3_copy_4">
		<g>
			<rect x="515.9" y="361.4" fill="#A7A7A7" width="39.7" height="39.7"/>
		</g>
	</g>
	<g id="Rectangle_3_copy_5">
		<g>
			<rect x="436.5" y="361.4" fill="#A7A7A7" width="39.7" height="39.7"/>
		</g>
	</g>
	<g id="Rectangle_3_copy_6">
		<g>
			<rect x="357.2" y="361.4" fill="#A7A7A7" width="39.7" height="39.7"/>
		</g>
	</g>
	<g id="Rectangle_3_copy_7">
		<g>
			<rect x="277.8" y="361.4" fill="#A7A7A7" width="39.7" height="39.7"/>
		</g>
	</g>
	<g id="Rectangle_3_copy_8">
		<g>
			<rect x="198.4" y="361.4" fill="#A7A7A7" width="39.7" height="39.7"/>
		</g>
	</g>
	<g id="Rectangle_3_copy_9">
		<g>
			<rect x="119.1" y="361.4" fill="#A7A7A7" width="39.7" height="39.7"/>
		</g>
	</g>
	<g id="Rectangle_3_copy_10">
		<g>
			<rect x="39.7" y="361.4" fill="#A7A7A7" width="39.7" height="39.7"/>
		</g>
	</g>
</g>
<g id="w3_1_">
	<g id="Rectangle_3_copy_4_1_">
		<g>
			<rect x="515.9" y="440.8" fill="#A7A7A7" width="39.7" height="39.7"/>
		</g>
	</g>
	<g id="Rectangle_3_copy_5_1_">
		<g>
			<rect x="436.5" y="440.8" fill="#A7A7A7" width="39.7" height="39.7"/>
		</g>
	</g>
	<g id="Rectangle_3_copy_6_1_">
		<g>
			<rect x="357.2" y="440.8" fill="#A7A7A7" width="39.7" height="39.7"/>
		</g>
	</g>
	<g id="Rectangle_3_copy_7_1_">
		<g>
			<rect x="277.8" y="440.8" fill="#A7A7A7" width="39.7" height="39.7"/>
		</g>
	</g>
	<g id="Rectangle_3_copy_8_1_">
		<g>
			<rect x="198.4" y="440.8" fill="#A7A7A7" width="39.7" height="39.7"/>
		</g>
	</g>
	<g id="Rectangle_3_copy_9_1_">
		<g>
			<rect x="119.1" y="440.8" fill="#A7A7A7" width="39.7" height="39.7"/>
		</g>
	</g>
	<g id="Rectangle_3_copy_10_1_">
		<g>
			<rect x="39.7" y="440.8" fill="#A7A7A7" width="39.7" height="39.7"/>
		</g>
	</g>
</g>
<g id="w4_1_">
	<g id="Rectangle_3_copy_4_2_">
		<g>
			<rect x="515.9" y="520.2" fill="#A7A7A7" width="39.7" height="39.7"/>
		</g>
	</g>
	<g id="Rectangle_3_copy_5_2_">
		<g>
			<rect x="436.5" y="520.2" fill="#A7A7A7" width="39.7" height="39.7"/>
		</g>
	</g>
	<g id="Rectangle_3_copy_6_2_">
		<g>
			<rect x="357.2" y="520.2" fill="#A7A7A7" width="39.7" height="39.7"/>
		</g>
	</g>
	<g id="Rectangle_3_copy_7_2_">
		<g>
			<rect x="277.8" y="520.2" fill="#A7A7A7" width="39.7" height="39.7"/>
		</g>
	</g>
	<g id="Rectangle_3_copy_8_2_">
		<g>
			<rect x="198.4" y="520.2" fill="#A7A7A7" width="39.7" height="39.7"/>
		</g>
	</g>
	<g id="Rectangle_3_copy_9_2_">
		<g>
			<rect x="119.1" y="520.2" fill="#A7A7A7" width="39.7" height="39.7"/>
		</g>
	</g>
	<g id="Rectangle_3_copy_10_2_">
		<g>
			<rect x="39.7" y="520.2" fill="#A7A7A7" width="39.7" height="39.7"/>
		</g>
	</g>
</g>
<g id="w5_1_">
	<g id="Rectangle_3_copy_11">
		<g>
			<rect x="39.7" y="599.5" fill="#A7A7A7" width="39.7" height="39.7"/>
		</g>
	</g>
	<g id="Rectangle_3_copy_11_1_">
		<g>
			<rect x="119.1" y="599.5" fill="#A7A7A7" width="39.7" height="39.7"/>
		</g>
	</g>
	<g id="Rectangle_3_copy_11_2_">
		<g>
			<rect x="198.4" y="599.5" fill="#A7A7A7" width="39.7" height="39.7"/>
		</g>
	</g>
	<g id="Rectangle_3_copy_11_3_">
		<g>
			<rect x="277.8" y="599.5" fill="#A7A7A7" width="39.7" height="39.7"/>
		</g>
	</g>
	<g id="Rectangle_3_copy_12">
		<g>
			<rect x="357.2" y="599.5" fill="#A7A7A7" width="39.7" height="39.7"/>
		</g>
	</g>
</g>
</svg>
