<?xml version="1.0" encoding="utf-8"?>
<!-- Generator: Adobe Illustrator 17.1.0, SVG Export Plug-In . SVG Version: 6.00 Build 0)  -->
<!DOCTYPE svg PUBLIC "-//W3C//DTD SVG 1.1//EN" "http://www.w3.org/Graphics/SVG/1.1/DTD/svg11.dtd">
<svg version="1.1" id="Layer_1" xmlns="http://www.w3.org/2000/svg" xmlns:xlink="http://www.w3.org/1999/xlink" x="0px" y="0px"
	 viewBox="0 0 16 16" enable-background="new 0 0 16 16" xml:space="preserve">
<path d="M10.3,0H1.8v16h12.3V3.9L10.3,0z M10.5,1.1l2.6,2.6h-2.6V1.1z M2.5,15.4V0.6h7.4v3.7h3.7v11.1H2.5z"/>
<path d="M4.5,13.2L4.5,13.2c-0.1,0-0.2,0-0.4-0.1c-0.4-0.3-0.4-0.6-0.4-0.8c0.1-0.6,0.8-1.2,2.2-1.9C6.5,9.2,7,7.7,7.3,6.5
	C6.9,5.7,6.6,4.6,6.8,4c0.1-0.2,0.2-0.4,0.5-0.4c0.1,0,0.2,0,0.2,0c0.2,0,0.3,0.1,0.5,0.2c0.1,0.1,0.4,0.6-0.1,2.6
	c0.5,1,1.2,2.1,1.9,2.8C10.3,9.1,10.7,9,11,9c0.6,0,0.9,0.1,1.1,0.4c0.1,0.2,0.1,0.5-0.1,0.8c-0.2,0.3-0.5,0.4-0.8,0.4
	c-0.4,0-1-0.3-1.5-0.8c-1,0.2-2.2,0.6-3.2,1c-0.3,0.6-0.6,1.2-0.9,1.6C5.1,12.9,4.8,13.2,4.5,13.2z M5.4,11.3
	c-0.8,0.4-1.1,0.8-1.1,1c0,0,0,0.1,0.2,0.3C4.5,12.6,4.9,12.4,5.4,11.3z M10.4,9.7c0.3,0.2,0.6,0.4,0.8,0.4c0.1,0,0.2,0,0.3-0.2
	c0.1-0.1,0.1-0.1,0.1-0.2c0,0-0.2-0.1-0.5-0.1C10.8,9.6,10.6,9.7,10.4,9.7z M7.7,7.3c-0.3,0.9-0.6,1.9-1,2.8
	c0.8-0.3,1.6-0.6,2.4-0.7C8.6,8.7,8.1,8,7.7,7.3z M7.5,4.2C7.5,4.2,7.5,4.2,7.5,4.2c-0.1,0-0.1,0-0.1,0.1c-0.1,0.2,0,0.6,0.1,1.1
	C7.6,4.6,7.6,4.3,7.5,4.2z"/>
</svg>
